<?xml version="1.0" encoding="UTF-8"?>
<svg id="Camada_1" data-name="Camada 1" xmlns="http://www.w3.org/2000/svg" viewBox="0 0 400 125">
  <defs>
    <style>
      .cls-1 {
        fill: #32348d;
      }

      .cls-1, .cls-2 {
        stroke-width: 0px;
      }

      .cls-2 {
        fill: #f0c631;
      }
    </style>
  </defs>
  <g id="cattanisul">
    <path id="path7049" class="cls-1" d="M35.85,19.56l-.06,12.53s-15.41-4.63-20.5,6.88c-3.87,8.74,1.53,16.66,8.81,19.4,5.99,1.81,12.01.78,18.15-.73v11.88s-18.23,7.29-32.79-4.24c-15.61-12.36-7.19-30.23-7.19-30.23,0,0,4.6-18.83,32.95-15.57l.63.08Z"/>
    <path id="path7051" class="cls-1" d="M45.34,27.12l4.75,10.21,12.09-6.29s4.78-2.76,7.52,2.13l7.47,16.48s1.63,3.38-.31,4.81c0,0-9.33,8.9-16.51,4.29,0,0-4.09-3.54.09-7.96,0,0,2.69-2.74,10.02-5.46l-4.61-10.75s-18.98,4.95-20.35,19.34c-1.37,14.39,10.66,18.16,14.44,18.33,3.78.17,14.83,1.85,33.56-14.66.85-.99,1.05-2.39.51-3.57l-13.18-28.72s-5.9-14.47-25.08-4.96c-3.68,1.94-7.17,4.22-10.42,6.81h0Z"/>
    <path id="path7055" class="cls-1" d="M110.34,32.9h14.51v-12.94h-14.56v-10.99s.31-2.12-1.16-2.12l-12.16.03.02,49.78s-1.24,17.83,23.59,14.47v-11.75h-3.2s-7.05.13-7.05-6.78v-19.71Z"/>
    <path id="path7057" class="cls-1" d="M143.01,32.9h14.51v-12.94h-14.55v-10.99s.31-2.12-1.16-2.12l-12.16.03.02,49.78s-1.24,17.83,23.59,14.47v-11.75h-3.2s-7.05.13-7.05-6.78v-19.71Z"/>
    <path id="path7059" class="cls-1" d="M160.72,27.12l4.75,10.21,12.09-6.29s4.78-2.76,7.52,2.13l7.47,16.48s1.63,3.38-.31,4.81c0,0-9.33,8.9-16.51,4.29,0,0-4.09-3.54.09-7.96,0,0,2.69-2.74,10.02-5.46l-4.62-10.75s-18.98,4.95-20.35,19.34c-1.37,14.39,10.66,18.16,14.44,18.33,3.78.17,14.83,1.85,33.56-14.66.85-.99,1.05-2.39.51-3.57l-13.18-28.72s-5.9-14.47-25.08-4.96c-3.68,1.94-7.17,4.22-10.42,6.81h0Z"/>
    <rect id="rect7061" class="cls-1" x="262.77" y="20.58" width="13.05" height="50.48" rx=".72" ry=".72"/>
    <rect id="rect7063" class="cls-1" x="262.65" y="6.65" width="13.3" height="11.78" rx=".17" ry=".17"/>
    <path id="path7065" class="cls-1" d="M212.97,25.77v44.87h13.58v-37.51l9.16-.94s8.1-.9,8.18,5.27v33.36h13.19v-33.51s1.56-20.34-24.14-17.72c0,0-6.14.44-17.75,4.03,0,0-2.22.7-2.22,2.14h0Z"/>
    <path id="path7069" class="cls-2" d="M342.41,17.92c-2.55,7.19-14.34,6.21-7.88,1.55,0,0-10.61.65-8.84,6.84,1.34,4.67,8.12,4.72,13.2,2.51,13.97-6.09,15.64-18.18,4.81-23.66-7.87-4.7-27.26-4.65-36.57-1.89-22.94,7.15-16.98,23.55-15.71,41.89.26,5.62,1.68,21.79-12.82,25.05-14.5,3.26-32.66-2.01-26.23-18.42,0,0,2.71-8.76,20.5-8.25,0,0-19.3-6.61-27.81,8.81-8.52,15.42,7.27,24.94,20.99,26,9.34.72,19.42-1.17,27.37-6.9,7.95-5.72,10.7-12.27,11.37-19.79,1.21-11.07-5.05-21.35-1.8-32.07,3.24-10.71,19.02-13.98,30.98-11.05,5.97,1.52,10.64,4.53,8.43,9.37Z"/>
    <path id="path7107" class="cls-2" d="M392.29,8.41c-1.47,0-2.93.24-4.33.7-6.82,2.02-15.46,9.14-21.01,14.77-9.02,9.19-11.77,13.05-11.06,26.84-2.39,2.2-5.06,4.07-7.94,5.56l.86-4.86-3.08,2.48c-.56,1.69-1,3.41-1.3,5.16-2.3,2.52-8.54,6.21-8.22-.05.32-6.26,12.57-19.01,14.6-21.44s.15-4.1-1.38-4.37c-1.53-.27-2.66,1.36-3.89,3.01s-16.5,19.5-16.5,19.5c0,0-10.57,10.9-11.3,4.84-.72-6.06,16.05-23.04,17.27-24.47,1.22-1.43,1.24-2.74-1.9-3-3.14-.26-3.89,1.96-3.89,1.96,0,0-5.03,9.19-18.74,24.99-13.72,15.8-27.76,20.43-27.76,20.43,0,0-4.97,1.5-.45,3.52,4.52,2.02,9.95-3.99,9.95-3.99,13.01-11.23,21.87-19.47,21.87-19.47-4.18,13.45,6.54,12.08,17.16-1.27-5.4,9.21,1.78,14.59,14.06,2.55,6.3,10.45,25.55,2.23,40.14,1.68s14.12,18.85,14.12,18.85c2.41-17.83-5.02-25.11-27.83-20.95s-23.19-1.72-23.19-1.72c6.38-4.59,8.95-6.9,8.95-6.9,4.45,7.06,19.18-3.21,19.18-3.21l-.93-.89c-13.05,6.95-15.71,1.84-15.71,1.84,12.07-8.78,23-19.04,32.52-30.54,3.38-4.04,5.83-11.39-.29-11.58h0ZM384.62,15.54c2.74.1,2.79,3.59-2.27,10.16-8.08,10.49-23.75,22.98-23.75,22.98-2.16-12,10.72-23.22,18.73-29.62,3.04-2.43,5.65-3.58,7.29-3.52h0Z"/>
    <g id="text8744">
      <path id="path8746" class="cls-1" d="M19.22,88.75l-.84,5.84c-.93-.65-1.94-1.16-3.01-1.53-.93-.33-1.91-.51-2.9-.52-1.08-.06-2.15.23-3.04.83-.72.55-1.12,1.41-1.08,2.31-.03.53.14,1.06.47,1.48.58.48,1.26.83,1.99,1.02l2.13.72c1.56.46,2.93,1.39,3.92,2.68.89,1.33,1.33,2.91,1.26,4.51.13,2.63-.77,5.21-2.5,7.2-1.73,1.84-4.17,2.83-6.69,2.72-1.32,0-2.63-.17-3.9-.5-1.31-.34-2.58-.84-3.78-1.48l.82-6c1.06.86,2.23,1.58,3.49,2.12,1.06.45,2.2.69,3.35.7,1.06.05,2.09-.31,2.89-1,.74-.64,1.15-1.57,1.12-2.55.04-.57-.14-1.13-.5-1.57-.63-.55-1.38-.95-2.19-1.16l-2.12-.72c-1.42-.42-2.65-1.3-3.5-2.51-.82-1.34-1.22-2.89-1.15-4.45-.12-2.52.74-4.99,2.4-6.89,1.69-1.77,4.06-2.72,6.5-2.6,1.13,0,2.25.12,3.35.35,1.2.23,2.37.57,3.51,1.02h0Z"/>
      <path id="path8748" class="cls-1" d="M38.15,105.89l-.16,1.05h-11.32c0,.07,0,.18-.01.33,0,.14-.01.24-.01.31-.08,1.08.23,2.15.88,3.01.7.71,1.67,1.07,2.66,1,1.1-.02,2.19-.23,3.22-.63,1.26-.48,2.45-1.11,3.57-1.87l-.74,5.14c-1.12.57-2.31,1.01-3.53,1.31-1.16.29-2.35.44-3.55.44-2.07.12-4.08-.7-5.47-2.24-1.28-1.49-1.92-3.6-1.92-6.32,0-1.55.2-3.09.61-4.58.39-1.44,1-2.82,1.8-4.08.82-1.37,1.96-2.52,3.32-3.36,1.31-.77,2.8-1.16,4.31-1.14,1.88-.07,3.69.76,4.86,2.24,1.29,1.74,1.93,3.87,1.81,6.02,0,.49-.03,1.02-.08,1.57-.04.54-.12,1.14-.23,1.79h0ZM33.58,102.86c.03-.16.04-.32.05-.48.02-.17.03-.34.03-.5.04-.83-.18-1.66-.65-2.35-.4-.57-1.07-.89-1.76-.87-.92,0-1.81.38-2.42,1.07-.76.9-1.28,1.97-1.51,3.12h6.26Z"/>
      <path id="path8750" class="cls-1" d="M56.86,98.2c.63-1.14,1.5-2.13,2.54-2.92.86-.64,1.9-1,2.97-1.02,1.25-.05,2.44.53,3.19,1.53.85,1.22,1.26,2.69,1.18,4.17,0,.37-.02.79-.07,1.27-.04.47-.1,1-.18,1.61l-1.8,12.6h-4.88l1.53-10.79.04-.28c.17-.97.29-1.95.35-2.94.03-.57-.12-1.13-.43-1.61-.26-.38-.69-.61-1.15-.59-1.02.05-1.92.66-2.36,1.57-.75,1.38-1.22,2.89-1.38,4.45l-1.46,10.18h-4.88l1.55-10.79c.14-.92.23-1.62.28-2.09.05-.37.07-.75.08-1.13.03-.57-.11-1.13-.42-1.61-.26-.38-.7-.61-1.16-.59-1.02.08-1.92.7-2.35,1.63-.76,1.35-1.23,2.85-1.39,4.4l-1.46,10.18h-4.85l2.95-20.68h4.86l-.45,3.03c.63-1.03,1.45-1.93,2.42-2.64.78-.57,1.71-.88,2.67-.89,1.01-.01,1.98.39,2.69,1.11.76.76,1.24,1.76,1.35,2.82Z"/>
      <path id="path8752" class="cls-1" d="M74.49,112.46l-1.55,10.86h-4.86l4.07-28.56h4.86l-.45,3.03c.58-1.04,1.37-1.94,2.32-2.66.77-.57,1.7-.87,2.66-.87,1.64-.03,3.18.81,4.04,2.22,1.08,1.82,1.6,3.92,1.49,6.04,0,1.56-.17,3.12-.53,4.64-.31,1.43-.81,2.8-1.49,4.1-.67,1.36-1.62,2.56-2.78,3.53-.93.77-2.1,1.19-3.31,1.2-.95.03-1.89-.27-2.65-.85-.82-.73-1.45-1.65-1.82-2.68h0ZM79.57,99.07c-1.24,0-2.26.79-3.05,2.36-.86,1.92-1.26,4.01-1.18,6.11-.05.94.18,1.87.66,2.68.41.62,1.12.98,1.86.96,1.22,0,2.22-.77,3.01-2.31.86-1.86,1.27-3.9,1.19-5.95.06-1-.16-1.99-.65-2.86-.39-.65-1.1-1.03-1.85-1h0Z"/>
      <path id="path8754" class="cls-1" d="M102.38,100.4c-.33-.26-.71-.46-1.11-.59-.42-.14-.87-.21-1.31-.2-1.23,0-2.39.61-3.08,1.62-.93,1.4-1.49,3.02-1.65,4.69l-1.38,9.53h-4.85l2.94-20.69h4.86l-.53,3.55c.54-1.18,1.36-2.21,2.39-2.99.92-.69,2.05-1.06,3.2-1.05.19,0,.39.01.58.04.22.03.47.06.77.11l-.85,5.98Z"/>
      <path id="path8756" class="cls-1" d="M119.2,105.89l-.16,1.05h-11.32c0,.07,0,.18-.01.33,0,.14-.01.24-.01.31-.08,1.08.23,2.15.88,3.01.7.71,1.67,1.07,2.66,1,1.1-.02,2.19-.23,3.22-.63,1.26-.48,2.45-1.11,3.57-1.87l-.74,5.14c-1.12.57-2.31,1.01-3.53,1.31-1.16.29-2.35.44-3.55.44-2.07.12-4.08-.7-5.47-2.24-1.28-1.49-1.92-3.6-1.92-6.32,0-1.55.2-3.09.61-4.58.39-1.44,1-2.82,1.8-4.08.82-1.37,1.96-2.52,3.32-3.36,1.31-.77,2.8-1.16,4.31-1.14,1.88-.07,3.69.76,4.86,2.24,1.29,1.74,1.93,3.87,1.81,6.02,0,.49-.03,1.02-.08,1.57-.04.54-.12,1.14-.23,1.79h0ZM114.63,102.86c.03-.16.04-.32.05-.48.02-.17.03-.33.03-.5.04-.83-.18-1.66-.65-2.35-.4-.57-1.07-.89-1.76-.87-.92,0-1.81.38-2.42,1.07-.76.9-1.28,1.97-1.51,3.12h6.26Z"/>
      <path id="path8758" class="cls-1" d="M132.07,107.4l1.77-12.63h4.85l-1.53,10.77c-.11.7-.19,1.3-.24,1.79-.05.39-.07.77-.08,1.16-.04.64.13,1.27.47,1.81.31.43.82.67,1.35.65,1.08-.04,2.05-.65,2.58-1.59.82-1.34,1.33-2.85,1.49-4.41l1.46-10.18h4.85l-2.93,20.69h-4.88l.45-3.03c-.69,1.05-1.57,1.96-2.61,2.68-.85.57-1.85.88-2.88.89-1.25.06-2.45-.5-3.2-1.5-.83-1.25-1.23-2.73-1.14-4.23,0-.43.02-.89.05-1.37.04-.48.09-.98.16-1.5h0Z"/>
      <path id="path8760" class="cls-1" d="M167.24,98.2c.63-1.14,1.5-2.13,2.54-2.92.86-.64,1.9-1,2.97-1.02,1.25-.05,2.44.53,3.19,1.53.85,1.22,1.26,2.69,1.18,4.17,0,.37-.02.79-.07,1.27-.04.47-.09,1-.18,1.61l-1.8,12.6h-4.88l1.53-10.79.04-.28c.17-.97.29-1.95.35-2.94.03-.57-.12-1.13-.43-1.61-.26-.38-.69-.61-1.15-.59-1.02.05-1.92.66-2.36,1.57-.75,1.38-1.22,2.89-1.38,4.45l-1.46,10.18h-4.88l1.55-10.79c.14-.92.23-1.62.28-2.09.05-.37.07-.75.08-1.13.03-.57-.11-1.13-.42-1.61-.26-.38-.7-.61-1.16-.59-1.02.08-1.92.7-2.35,1.63-.76,1.35-1.23,2.85-1.39,4.4l-1.46,10.18h-4.85l2.94-20.69h4.86l-.45,3.03c.63-1.03,1.45-1.93,2.42-2.64.78-.57,1.71-.88,2.68-.89,1.01-.01,1.98.39,2.69,1.11.76.76,1.24,1.76,1.35,2.83h0Z"/>
      <path id="path8762" class="cls-1" d="M187.83,106.15c-.98-.07-1.95.21-2.74.78-.64.57-.98,1.4-.92,2.25-.04.64.15,1.26.54,1.77.38.44.94.67,1.51.65.97,0,1.89-.44,2.48-1.22.74-1.02,1.21-2.22,1.34-3.47l.11-.76h-2.32ZM195.38,103.65l-1.69,11.8h-4.84l.41-3.07c-.64,1.07-1.5,2-2.51,2.73-.85.57-1.86.87-2.88.87-1.31.05-2.58-.51-3.42-1.51-.89-1.18-1.33-2.64-1.26-4.12,0-2.63.74-4.65,2.23-6.04,1.49-1.4,3.65-2.11,6.46-2.11h2.85l.05-.52c.02-.12.04-.25.04-.37,0-.07.01-.14.01-.2.05-.71-.27-1.4-.85-1.83-.75-.47-1.62-.69-2.5-.63-.98,0-1.96.14-2.91.43-.96.29-1.87.72-2.72,1.27l.73-5.04c1.01-.34,2.04-.6,3.09-.78,1.09-.19,2.19-.28,3.3-.28,2.24,0,3.91.53,5,1.59,1.09,1.05,1.64,2.65,1.64,4.8,0,.42-.02.88-.07,1.39-.04.49-.09,1.03-.18,1.61h0Z"/>
      <path id="path8764" class="cls-1" d="M218.25,99.07c-1.24,0-2.26.79-3.05,2.36-.86,1.92-1.26,4.01-1.18,6.11-.05.94.18,1.87.66,2.68.41.62,1.12.98,1.87.96,1.22,0,2.22-.77,3.01-2.31.86-1.86,1.27-3.9,1.19-5.95.06-1-.16-1.99-.65-2.86-.39-.65-1.1-1.03-1.85-1h0ZM213.17,112.46l-.45,2.99h-4.85l4.08-28.74h4.86l-1.58,11.08c.58-1.03,1.37-1.94,2.32-2.66.77-.57,1.7-.87,2.66-.87,1.64-.03,3.18.81,4.04,2.22,1.08,1.82,1.6,3.92,1.49,6.04,0,1.56-.17,3.12-.53,4.64-.31,1.43-.81,2.8-1.49,4.1-.67,1.36-1.62,2.56-2.78,3.53-.93.77-2.1,1.19-3.31,1.2-.95.03-1.89-.27-2.65-.85-.82-.73-1.45-1.65-1.82-2.68h0Z"/>
      <path id="path8766" class="cls-1" d="M237.21,99c-1.25,0-2.28.78-3.09,2.33-.88,1.85-1.29,3.88-1.22,5.93-.06,1.04.16,2.07.65,2.99.41.66,1.14,1.05,1.92,1.02,1.25,0,2.28-.78,3.09-2.33.87-1.86,1.29-3.91,1.22-5.97.06-1.03-.17-2.05-.66-2.96-.4-.66-1.13-1.05-1.91-1.02ZM237.6,94.27c2.04-.09,4.01.77,5.31,2.35,1.29,1.56,1.93,3.69,1.93,6.39,0,1.54-.2,3.07-.61,4.56-.39,1.42-.98,2.78-1.77,4.03-.81,1.34-1.92,2.47-3.26,3.29-1.27.74-2.72,1.13-4.19,1.11-2.03.09-3.98-.78-5.27-2.35-1.28-1.56-1.92-3.69-1.92-6.39,0-1.54.21-3.06.62-4.54.39-1.44.99-2.81,1.78-4.08.8-1.32,1.9-2.44,3.22-3.25,1.26-.74,2.69-1.12,4.15-1.11h0Z"/>
      <path id="path8768" class="cls-1" d="M254.94,106.15c-.98-.07-1.95.21-2.74.78-.64.57-.98,1.4-.92,2.25-.04.64.16,1.26.54,1.77.38.44.94.67,1.51.65.97,0,1.9-.44,2.49-1.22.74-1.02,1.21-2.22,1.34-3.47l.11-.76h-2.32ZM262.5,103.65l-1.69,11.8h-4.84l.4-3.07c-.64,1.07-1.5,2-2.51,2.73-.85.57-1.86.87-2.88.87-1.31.05-2.58-.51-3.42-1.51-.89-1.18-1.33-2.64-1.26-4.12,0-2.63.74-4.65,2.23-6.04,1.49-1.4,3.65-2.11,6.46-2.11h2.85l.05-.52c.02-.12.03-.25.04-.37,0-.07.01-.14.02-.2.05-.71-.27-1.4-.85-1.83-.75-.47-1.62-.69-2.5-.63-.98,0-1.96.14-2.9.43-.96.29-1.87.72-2.72,1.27l.73-5.04c1.01-.34,2.04-.6,3.09-.78,1.09-.19,2.19-.28,3.3-.28,2.24,0,3.91.53,5,1.59,1.09,1.05,1.63,2.65,1.63,4.8,0,.42-.02.88-.07,1.39-.04.49-.09,1.03-.18,1.61h0Z"/>
      <path id="path8770" class="cls-1" d="M275.88,94.77h4.46l1.96,14.44,5.7-14.44h4.9l-8.89,20.69h-5.12l-3.01-20.69Z"/>
      <path id="path8772" class="cls-1" d="M295.97,94.77h4.86l-2.96,20.69h-4.85l2.95-20.69ZM297.11,86.72h4.86l-.77,5.39h-4.88l.79-5.39Z"/>
      <path id="path8774" class="cls-1" d="M310.77,106.15c-.98-.07-1.95.21-2.74.78-.64.57-.98,1.4-.92,2.25-.04.64.16,1.27.54,1.77.38.44.94.67,1.51.65.97,0,1.9-.44,2.49-1.22.74-1.02,1.21-2.22,1.34-3.47l.11-.76h-2.32ZM318.32,103.65l-1.69,11.8h-4.84l.41-3.07c-.64,1.07-1.5,2-2.51,2.73-.85.57-1.86.87-2.88.87-1.31.05-2.58-.51-3.42-1.51-.89-1.18-1.33-2.64-1.26-4.12,0-2.63.74-4.65,2.23-6.04,1.49-1.4,3.65-2.11,6.46-2.11h2.85l.05-.52c.02-.12.03-.25.04-.37,0-.07.01-.14.02-.2.05-.71-.27-1.4-.85-1.83-.75-.47-1.62-.69-2.5-.63-.98,0-1.96.14-2.9.43-.96.29-1.87.72-2.72,1.27l.73-5.04c1.01-.34,2.04-.6,3.09-.78,1.09-.19,2.19-.28,3.3-.28,2.24,0,3.91.53,5,1.59,1.09,1.05,1.63,2.65,1.63,4.8,0,.42-.02.88-.07,1.39-.04.49-.09,1.03-.18,1.61h0Z"/>
      <path id="path8776" class="cls-1" d="M331.9,111.95c-.61,1.03-1.42,1.93-2.36,2.66-.76.55-1.68.85-2.62.85-1.66.03-3.21-.83-4.07-2.25-1.08-1.88-1.6-4.03-1.49-6.19,0-1.41.17-2.81.51-4.17.34-1.37.84-2.7,1.5-3.95.65-1.32,1.58-2.48,2.73-3.4.94-.76,2.11-1.17,3.31-1.18.96-.03,1.91.27,2.67.85.84.72,1.47,1.64,1.84,2.68l.4-3.07h4.88l-2.55,17.97c-.52,3.71-1.64,6.45-3.35,8.22-1.71,1.77-4.09,2.66-7.13,2.66-.91,0-1.82-.1-2.72-.3-.89-.2-1.75-.51-2.57-.9l.72-5.15c.68.61,1.46,1.11,2.3,1.48.74.33,1.54.5,2.35.5,1.38.09,2.72-.42,3.69-1.4,1.01-1.29,1.62-2.84,1.74-4.47l.21-1.42ZM330.55,99.07c-1.19,0-2.18.73-2.97,2.2-.84,1.72-1.24,3.61-1.18,5.52-.06,1,.16,2,.64,2.88.39.64,1.1,1.01,1.85.98,1.18,0,2.17-.73,2.96-2.18.84-1.7,1.25-3.57,1.19-5.47.06-1.01-.16-2.02-.64-2.92-.38-.65-1.09-1.05-1.85-1.02h0Z"/>
      <path id="path8778" class="cls-1" d="M357.54,105.89l-.16,1.05h-11.32c0,.07,0,.18-.01.33,0,.14-.01.24-.01.31-.08,1.08.23,2.15.88,3.01.7.71,1.67,1.07,2.66,1,1.1-.02,2.19-.23,3.22-.63,1.26-.48,2.45-1.11,3.57-1.87l-.74,5.14c-1.12.57-2.31,1.01-3.53,1.31-1.16.29-2.35.44-3.55.44-2.07.12-4.08-.7-5.47-2.24-1.28-1.49-1.92-3.6-1.92-6.32,0-1.55.2-3.09.61-4.58.39-1.44,1-2.82,1.8-4.08.82-1.37,1.96-2.52,3.32-3.36,1.31-.77,2.8-1.16,4.31-1.14,1.88-.07,3.69.76,4.86,2.24,1.29,1.74,1.93,3.87,1.81,6.02,0,.49-.03,1.02-.08,1.57-.04.54-.12,1.14-.23,1.79h0ZM352.97,102.86c.03-.16.04-.32.05-.48.02-.17.03-.33.03-.5.04-.83-.18-1.66-.65-2.35-.4-.57-1.07-.89-1.76-.87-.92,0-1.81.38-2.42,1.07-.76.9-1.27,1.97-1.51,3.12h6.26Z"/>
      <path id="path8780" class="cls-1" d="M376.25,98.2c.63-1.14,1.5-2.13,2.54-2.92.86-.64,1.9-1,2.97-1.02,1.25-.05,2.44.53,3.19,1.53.85,1.22,1.26,2.69,1.18,4.17,0,.37-.02.79-.07,1.27-.04.47-.09,1-.18,1.61l-1.8,12.6h-4.88l1.53-10.79.04-.28c.17-.97.29-1.95.35-2.94.03-.57-.12-1.13-.43-1.61-.26-.38-.69-.61-1.15-.59-1.02.05-1.92.66-2.36,1.57-.75,1.38-1.22,2.89-1.38,4.45l-1.46,10.18h-4.88l1.55-10.79c.14-.92.23-1.62.28-2.09.05-.37.07-.75.08-1.13.03-.57-.11-1.13-.42-1.61-.26-.38-.7-.61-1.16-.59-1.02.08-1.92.7-2.35,1.63-.76,1.35-1.23,2.85-1.39,4.4l-1.46,10.18h-4.85l2.94-20.69h4.86l-.45,3.03c.63-1.03,1.45-1.93,2.42-2.64.78-.57,1.71-.88,2.67-.89,1.01-.01,1.98.39,2.69,1.11.76.76,1.24,1.76,1.35,2.83h0Z"/>
      <path id="path8782" class="cls-1" d="M393.57,87.88h4.88l-1.53,10.58-1.77,7.72h-3.49l.38-7.72,1.52-10.58ZM390.59,108.88h4.86l-.93,6.58h-4.88l.95-6.58Z"/>
    </g>
  </g>
</svg>