<svg xmlns="http://www.w3.org/2000/svg" viewBox="0 0 639.32 125"><path fill="#365834" d="M.13.12h639.62v124.9H.13z"/><path fill="#fff" fill-rule="evenodd" d="M351.2 63.73h-6.68a3.2 3.2 0 0 0-2.35 1 3.3 3.3 0 0 0 0 4.7 3.2 3.2 0 0 0 2.34 1h6.68v-6.7zm-6.67 10a6.6 6.6 0 0 1-6.67-6.67 6.68 6.68 0 0 1 .88-3.35 6.23 6.23 0 0 1 5.8-3.3h6.65v-3.34a3.26 3.26 0 0 0-3.34-3.32h-6.67a1.67 1.67 0 1 1 0-3.34h6.66a6.6 6.6 0 0 1 6.67 6.66v15a1.46 1.46 0 0 1-1.66 1.66zm-15.67-5.83a2.32 2.32 0 0 0-1.42-2.26l-8.55-4.13a5.48 5.48 0 0 1-3.38-5.26 5.06 5.06 0 0 1 2.37-4.46 9.1 9.1 0 0 1 5.1-1.36 12.17 12.17 0 0 1 6.63 1.85 1.7 1.7 0 0 1 .9 1.47 1.57 1.57 0 0 1-.53 1.16 1.6 1.6 0 0 1-1.17.5 1.54 1.54 0 0 1-.8-.2 9.7 9.7 0 0 0-5.03-1.44q-4.14 0-4.14 2.48a2.3 2.3 0 0 0 1.36 2.22l8.64 4.16a5.46 5.46 0 0 1 3.34 5.28 5 5 0 0 1-2.4 4.55 9.8 9.8 0 0 1-5.28 1.28 16.2 16.2 0 0 1-8.07-1.84 1.65 1.65 0 0 1-.93-1.5 1.67 1.67 0 0 1 1.67-1.67 1.48 1.48 0 0 1 .62.13 21.3 21.3 0 0 0 2.38.93 14.6 14.6 0 0 0 4.42.6c2.83 0 4.24-.83 4.24-2.5zm-32.33-4.17v3.33a3.18 3.18 0 0 0 1 2.35 3.22 3.22 0 0 0 2.36 1h8.32a1.67 1.67 0 0 1 0 3.35h-8.33a6.57 6.57 0 0 1-6.68-6.66v-8.37a8.3 8.3 0 0 1 8.32-8.33 8.23 8.23 0 0 1 8.34 8.33v5zm5-10a5 5 0 0 0-5 5v1.66h10v-1.67a5 5 0 0 0-5-5zm-24 3.33v10a3.35 3.35 0 0 0 3.33 3.33h5a1.67 1.67 0 0 1 0 3.33h-5a6.6 6.6 0 0 1-6.67-6.66v-10a6.6 6.6 0 0 1 6.66-6.66h5a1.67 1.67 0 0 1 0 3.35h-5a3.33 3.33 0 0 0-3.33 3.33zm-25.67 15v-20a1.46 1.46 0 0 1 1.66-1.66h8.34a6.6 6.6 0 0 1 6.67 6.66v15a1.67 1.67 0 0 1-3.33 0v-15a3.26 3.26 0 0 0-3.34-3.33h-6.66v18.34a1.67 1.67 0 0 1-3.34 0zm-9-28.34v-1.65a1.67 1.67 0 1 1 3.34 0v1.66a1.67 1.67 0 1 1-3.34 0zm0 8.33a1.67 1.67 0 0 1 3.34 0v20a1.67 1.67 0 0 1-3.34 0v-20zm-19 0a1.46 1.46 0 0 1 1.66-1.66h10a1.47 1.47 0 0 1 1.67 1.65v3.35a1.67 1.67 0 0 1-3.35 0v-1.66h-6.65v18.33a1.67 1.67 0 0 1-3.33 0v-20zm203.26 15.6a2 2 0 0 0-1.2-1.94l-7.3-3.52a4.65 4.65 0 0 1-2.87-4.5 4.3 4.3 0 0 1 2-3.8 7.75 7.75 0 0 1 4.35-1.15 10.45 10.45 0 0 1 5.66 1.57 1.42 1.42 0 0 1 .76 1.26 1.34 1.34 0 0 1-.42 1 1.38 1.38 0 0 1-1 .42 1.28 1.28 0 0 1-.67-.17 8.38 8.38 0 0 0-4.33-1.2c-2.35 0-3.53.7-3.53 2.1a1.93 1.93 0 0 0 1.17 1.9l7.36 3.55a4.64 4.64 0 0 1 2.9 4.48 4.26 4.26 0 0 1-2 3.88 8.28 8.28 0 0 1-4.5 1.1 13.74 13.74 0 0 1-6.96-1.6 1.4 1.4 0 0 1 .63-2.68 1.32 1.32 0 0 1 .53.1 18.67 18.67 0 0 0 2 .8 12.5 12.5 0 0 0 3.77.52c2.4 0 3.62-.7 3.62-2.13zm-19.05-2.15v-5.68a4.26 4.26 0 1 0-8.52 0v5.68a4.26 4.26 0 0 0 8.52 0zm-11.37 0v-5.68a7.1 7.1 0 1 1 14.22 0v5.68a7.1 7.1 0 1 1-14.22 0zm-13.36-9.94a2.73 2.73 0 0 0-2 .82 2.78 2.78 0 0 0-.83 2v8.52a2.85 2.85 0 0 0 2.85 2.85H389v-14.2zm-5.7 2.83a5.62 5.62 0 0 1 .77-2.87 5.3 5.3 0 0 1 4.94-2.82H389v-7.1a1.43 1.43 0 0 1 2.85 0v25.6a1.25 1.25 0 0 1-1.42 1.4h-7.1a5.63 5.63 0 0 1-5.7-5.68V58.4zm104.2 16.1a6.8 6.8 0 0 1-6.9-6.9 6.84 6.84 0 0 1 .93-3.45 6.42 6.42 0 0 1 6-3.42h6.88V57.3a3.38 3.38 0 0 0-3.44-3.45h-6.9a1.73 1.73 0 1 1 0-3.45h6.88a6.83 6.83 0 0 1 6.9 6.9v15.48a1.52 1.52 0 0 1-1.73 1.73zm6.88-10.33h-6.9a3.32 3.32 0 0 0-2.42 1 3.27 3.27 0 0 0-1 2.43 3.43 3.43 0 0 0 3.43 3.44h6.9v-6.87zm11-13.77h15.5a6.8 6.8 0 0 1 6.88 6.9v15.48a1.72 1.72 0 1 1-3.44 0v-15.5a3.37 3.37 0 0 0-1-2.44 3.32 3.32 0 0 0-2.45-1h-3.44v18.94a1.72 1.72 0 1 1-3.44 0V53.85h-6.88v18.93a1.72 1.72 0 1 1-3.44 0V52.12a1.5 1.5 0 0 1 1.7-1.72zM528 52a1.52 1.52 0 0 1 1.72-1.72h8.6a6.8 6.8 0 0 1 6.9 6.88v10.37a6.83 6.83 0 0 1-6.9 6.88h-6.92V83a1.72 1.72 0 0 1-3.4 0V52zm3.44 1.72V71h6.9a3.43 3.43 0 0 0 3.43-3.44V57.2a3.38 3.38 0 0 0-3.44-3.44zM551 65.9V59a8.6 8.6 0 1 1 17.2 0v6.9a8.6 8.6 0 0 1-17.2 0zm13.77 0V59a5.17 5.17 0 1 0-10.33 0v6.9a5.17 5.17 0 0 0 10.33 0zm23.06 2.58a2.4 2.4 0 0 0-1.47-2.34l-8.83-4.27a5.64 5.64 0 0 1-3.47-5.44 5.17 5.17 0 0 1 2.45-4.6 9.33 9.33 0 0 1 5.28-1.4 12.56 12.56 0 0 1 6.85 1.9 1.75 1.75 0 0 1 .92 1.52 1.65 1.65 0 0 1-.5 1.2 1.7 1.7 0 0 1-1.22.52 1.6 1.6 0 0 1-.8-.2 10 10 0 0 0-5.25-1.5q-4.27 0-4.28 2.56a2.35 2.35 0 0 0 1.4 2.3l8.96 4.27a5.62 5.62 0 0 1 3.45 5.44 5.2 5.2 0 0 1-2.47 4.7 10.08 10.08 0 0 1-5.46 1.34 16.6 16.6 0 0 1-8.32-1.92 1.68 1.68 0 0 1-1-1.54 1.63 1.63 0 0 1 .5-1.2 1.66 1.66 0 0 1 1.22-.5 1.57 1.57 0 0 1 .65.12 22 22 0 0 0 2.46 1 15.18 15.18 0 0 0 4.56.62c2.92 0 4.38-.85 4.38-2.57zm-118.5-23.56a1.72 1.72 0 1 1 0 3.44h-6.88a5.16 5.16 0 0 0-5.17 5.17v17.2a5.17 5.17 0 0 0 5.17 5.16h6.88a1.73 1.73 0 0 1 0 3.44h-6.88a8.6 8.6 0 0 1-8.6-8.6v-17.2a8.6 8.6 0 0 1 8.6-8.62zM204.87 48.8v16.66h6.66a3.33 3.33 0 0 0 3.34-3.34v-10a3.28 3.28 0 0 0-3.34-3.34zm-3.34-1.67a1.47 1.47 0 0 1 1.67-1.66h8.33a6.6 6.6 0 0 1 6.68 6.66v10a6.62 6.62 0 0 1-6.66 6.66h-6.67v8.33a1.67 1.67 0 1 1-3.34 0z"/><path fill="#b8cb52" d="M108.12 75.73a84 84 0 0 1-22.94-19 35.45 35.45 0 0 1-6.94-12.5h1.57A35 35 0 0 0 86.1 55a82.3 82.3 0 0 0 22.53 18.67c9.26 5.32 18.13 8.24 25 8.65 6.58.4 11.18-1.48 12.22-5.7s-1.62-10.3-6.75-16.65a67.37 67.37 0 0 0-5.54-6c-4.18-3-8.58-5.78-13.16-8.4-17.1-9.85-33.5-15.24-46.13-16C62.1 28.82 53.6 32.28 51.7 40.1s3 19 12.47 30.73c8.1 10 19.48 20.25 32.8 29.05h-6.62a145 145 0 0 1-27.9-25.83c-10.45-12.88-15.7-25.7-13.3-35.4S61 24.56 74.34 25.36c12.87.77 29.56 6.26 47 16.26s32.3 22.7 42.35 35.13c6.43 8 10.9 15.9 12.82 23.1h-2.9c-1.9-6-6-12.85-11.62-19.86a135.5 135.5 0 0 0-20.86-20.4c4.88 6.5 7.28 12.86 6.08 17.75-1.28 5.26-6.4 7.62-13.64 7.18-7-.4-16.04-3.38-25.46-8.8z"/></svg>