<svg xmlns="http://www.w3.org/2000/svg" viewBox="0 0 400 125"><path d="M167.6 36.63H399l-23.82 51.8H146.9l9.08-22.73-12.84-15.2 24.45-13.87z" style="fill:#c66c0d"/><path d="M232.4 88.44H1l23.82-51.8h236.16l-27.75 13.75 23.63 24.17-24.45 13.87z" style="fill:#00375f"/><path d="M111.52 36.63h-18l-13 25.82c-4.2 8.3-11 11.62-20.34 11.62-8.13 0-11.86-2.8-11.34-6.37a15.6 15.6 0 0 1 1.64-5.3l13-25.77h-26.2l.38.16a7.45 7.45 0 0 1 4.45 6.4l-9.2 18.4a21.77 21.77 0 0 0-2.15 6.23c-1.4 9.56 8.57 14.27 26 14.27 22.9 0 35.12-6.5 42-20zm36.78 9.85c-8.05 0-15.87 1.86-22.18 6.12h-.25l2-5.4H112c-1.16 2.87-2.66 6.47-4.74 10.6l-10.82 22h17.84l7.14-14.45c3.58-7.22 10.92-11.15 16.74-11.15 4.46 0 5.72 1.6 5.4 3.86a13.5 13.5 0 0 1-1.15 3.66l-8.9 18h17.85l9.4-18.9a24.26 24.26 0 0 0 1.77-5.53c.8-5.56-4.3-8.82-14.2-8.82zm177.87.2L319 61.13c-3.5 7.18-10.88 11.1-16.7 11.1-4.46 0-5.72-1.6-5.4-3.85a13.5 13.5 0 0 1 1.14-3.66l8.9-18h-17.8l-9.4 18.9a25.22 25.22 0 0 0-1.74 5.5c-.8 5.58 4.3 8.84 14.22 8.84 8.05 0 15.87-1.86 22.18-6.12h.25l-2 5.4h15.86c1.16-2.87 2.66-6.47 4.74-10.6l10.82-22zM207.7 70.8a69.88 69.88 0 0 1-17.16 2c-5.17 0-9.1-.87-11.2-2.52A4 4 0 0 1 178 67c24.1.33 39.4-2.64 40.6-10.9.86-6-7.36-9.64-19.55-9.64-21.8 0-36.56 10.24-38 20.08-1.2 8.4 6.9 13.6 24.15 13.6 6.65 0 15.48-.6 22.77-2.5zm-11.9-17.4c4.05 0 6.35 1.12 6.1 2.77-.4 2.9-7.45 4-21.23 3.9 1.67-3.05 6.86-6.68 15.12-6.68zm61.7 4.78c-8-2.4-13.75-4.2-13.3-7.14s5.92-5.33 15.75-5.33a67.2 67.2 0 0 1 18.13 2.3l7.92-9c-4.07-1.2-10.9-2.56-22.93-2.56-21.55 0-39.93 6.24-41.46 16.46-1 6.6 8.4 10.5 18.52 13.44 8.73 2.4 12.7 4.3 12.27 7.14-.6 4-8.38 5.93-16.6 5.93a77.16 77.16 0 0 1-22.8-3.27L204.65 85c4.42 1.8 14 3.6 27.75 3.6 22 0 41-5.78 42.73-17.05.87-6-6.13-10.14-17.64-13.37zm114.92-21.55h-18L333.74 80h18l16.86-35.36a22.64 22.64 0 0 1 12.95-7.56l2.3-.45zM257.5 58.18c-8-2.4-13.75-4.2-13.3-7.14s5.92-5.33 15.75-5.33a67.2 67.2 0 0 1 18.13 2.3l7.92-9c-4.07-1.2-10.9-2.56-22.93-2.56-21.55 0-39.93 6.24-41.46 16.46-1 6.6 8.4 10.5 18.52 13.44 8.73 2.4 12.7 4.3 12.27 7.14-.6 4-8.38 5.93-16.6 5.93a77.16 77.16 0 0 1-22.8-3.27L204.65 85c4.42 1.8 14 3.6 27.75 3.6 22 0 41-5.78 42.73-17.05.87-6-6.13-10.14-17.64-13.37z" style="fill:#fff"/></svg>